# xmcd CD database file generated by OrangeCD 6.1
#
# Track frame offsets:
#	150
#	14630
#	26270
#	40232
#	54905
#	72975
#	90760
#	104767
#	122912
#	138440
#	150582
#	167467
#	188917
#
# Disc length: 2701 seconds
#
# Revision: 3
# Processed by: cddbd v1.5.2PL0 Copyright (c) Steve Scherf et al.
# Submitted via: OrangeCD 6.1
#
DISCID=a30a8b0d
DTITLE=The Cox Family - Beyond The City
DYEAR=1995
DGENRE=Country
TTITLE0=Lovin' You
TTITLE1=Cowboy's Dream
TTITLE2=Another Lonesome Morning
TTITLE3=Beautiful Bouquet
TTITLE4=I'll Be All Smiles Tonight
TTITLE5=Lizzy And The Rainman
TTITLE6=Little Birdie
TTITLE7=Blue Bayou
TTITLE8=Streets Of Gold
TTITLE9=Broken Engagement
TTITLE10=Cotton Dan
TTITLE11=Beyond The City
TTITLE12=Broken Engagement (1974 version)
EXTD=
EXTT0=
EXTT1=
EXTT2=
EXTT3=
EXTT4=
EXTT5=
EXTT6=
EXTT7=
EXTT8=
EXTT9=
EXTT10=
EXTT11=
EXTT12=
PLAYORDER=
